<?xml version="1.0" encoding="UTF-8" standalone="no"?><!-- Generator: Gravit.io --><svg xmlns="http://www.w3.org/2000/svg" xmlns:xlink="http://www.w3.org/1999/xlink" style="isolation:isolate" viewBox="0 0 500 113" width="500pt" height="113pt"><defs><clipPath id="_clipPath_v5riRpIW8rFGQg8xgsn5s6Prd7mPX1AM"><rect width="500" height="113"/></clipPath></defs><g clip-path="url(#_clipPath_v5riRpIW8rFGQg8xgsn5s6Prd7mPX1AM)"><path d=" M 234.207 111.236 L 234.207 111.236 L 27.256 111.236 L 27.256 111.236 L 6.561 111.236 Q -0.785 110.559 0.094 103.475 Q 0.973 96.392 6.561 27.162 Q 8.612 0 27.256 0 L 27.256 0 L 234.207 0 L 234.207 0 Q 233.974 0 241.967 0 Q 249.961 0 251.022 7.761 L 251.022 45.27 C 238.602 45.27 250.163 93.118 252.315 102.182 Q 254.467 111.246 243.261 111.236 L 234.207 111.236 Z " fill-rule="evenodd" fill="rgb(249,249,249)"/><path d=" M 0.329 101.299 Q -0.54 107.186 1.396 109.122 C 3.332 111.058 6.612 111.256 7.797 111.256 Q 8.982 111.256 244.666 111.256 Q 253.833 110.584 252.529 103.156 L 251.877 100.311 L 0.428 100.311 L 0.329 101.299 Z " fill="rgb(221,221,221)"/><path d=" M 487.721 3.88 L 487.721 3.88 C 502.464 3.88 500.08 20.907 495.482 32.336 C 490.884 43.765 484.073 43.644 470.907 36.216 Q 457.74 28.789 443.744 32.336 Q 424.231 38.803 370.018 38.803 C 315.805 38.803 306.912 31.043 298.879 31.043 L 298.879 31.043 Q 290.845 31.043 282.064 38.803 Q 281.63 40.915 279.477 45.27 Q 277.325 49.626 273.01 50.444 L 258.782 50.444 Q 254.306 50.444 253.608 45.27 L 253.608 7.761 Q 253.608 3.709 261.369 3.88 L 261.369 3.88 L 487.721 3.88 Z  M 297.093 29.749 L 298.879 31.043 L 307.871 29.749 L 332.508 29.749 L 332.508 31.043 L 298.879 31.043 L 289.825 31.043 L 289.825 29.749 L 297.093 29.749 Z " fill-rule="evenodd" fill="rgb(249,249,249)"/><circle vector-effect="non-scaling-stroke" cx="302.8664484797297" cy="15.144731894111072" r="3.951119087837867" fill="rgb(221,221,221)"/><circle vector-effect="non-scaling-stroke" cx="441.1029349662161" cy="15.144731894111072" r="3.951119087837867" fill="rgb(221,221,221)"/><rect x="286.924" y="25.734" width="55.592" height="5.334" transform="matrix(1,0,0,1,0,0)" fill="rgb(249,249,249)"/></g></svg>